<?xml version="1.0" encoding="UTF-8"?>
<!--
  tor-symbolic.svg — onion glyph for the tor-ext quick settings tile.
  Single-color (#2e3436) per freedesktop symbolic-icon convention; GS
  recolors at render time based on theme + active state.
-->
<svg xmlns="http://www.w3.org/2000/svg" width="16" height="16" viewBox="0 0 16 16">
  <g fill="#2e3436" fill-rule="evenodd">
    <!-- bulb body with little stem nub on top -->
    <path d="M8 14.2c-2.9 0-4.7-2.1-4.7-4.9 0-2.6 1.7-4.7 3.6-5.6-.2-.3-.3-.6-.3-.9 0-.7.6-1.3 1.4-1.3s1.4.6 1.4 1.3c0 .3-.1.6-.3.9 1.9.9 3.6 3 3.6 5.6 0 2.8-1.8 4.9-4.7 4.9zm0-1c2.1 0 3.6-1.6 3.6-3.9 0-2-1.3-3.7-3-4.4l-.6-.2.4-.5c.1-.2.2-.3.2-.5 0-.4-.3-.7-.6-.7s-.6.3-.6.7c0 .2.1.3.2.5l.4.5-.6.2c-1.7.7-3 2.4-3 4.4 0 2.3 1.5 3.9 3.6 3.9z"/>
    <!-- middle layer ring (concentric arc suggesting onion layers) -->
    <path d="M8 11.6c-1.4 0-2.4-1.1-2.4-2.5S6.6 6.6 8 6.6s2.4 1.1 2.4 2.5-1 2.5-2.4 2.5zm0-.9c.9 0 1.5-.7 1.5-1.6S8.9 7.5 8 7.5s-1.5.7-1.5 1.6.6 1.6 1.5 1.6z"/>
    <!-- innermost dot (core) -->
    <circle cx="8" cy="9.1" r="0.55"/>
  </g>
</svg>
