<?xml version="1.0" encoding="UTF-8"?>
<svg xmlns="http://www.w3.org/2000/svg" width="16" height="16" viewBox="0 0 16 16">
  <g fill="#2e3436">
    <path d="M8 1C4.134 1 1 4.134 1 8s3.134 7 7 7 7-3.134 7-7-3.134-7-7-7zm0 1.5c3.038 0 5.5 2.462 5.5 5.5S11.038 13.5 8 13.5 2.5 11.038 2.5 8 4.962 2.5 8 2.5z"/>
    <path d="M8 4.5C6.067 4.5 4.5 6.067 4.5 8S6.067 11.5 8 11.5c.414 0 .75-.336.75-.75s-.336-.75-.75-.75c-1.105 0-2-.895-2-2s.895-2 2-2c.414 0 .75-.336.75-.75s-.336-.75-.75-.75z"/>
    <circle cx="8" cy="8" r="1"/>
  </g>
</svg>
